# xmcd
#
# Track frame offsets: 
#        150
#        14825
#        31579
#        46597
#        57690
#        71102
#        82229
#        93854
#        108704
#
# Disc length: 1660 seconds
#
# Revision: 0
# Processed by: cddbd v1.5.2PL0 Copyright (c) Steve Scherf et al.
# Submitted via: ExactAudioCopy v0.95b3
#
DISCID=79067a09
DTITLE=The Giblet Dribblers - Feast on This
DYEAR=2001
DGENRE=Bluegrass
TTITLE0=Fireball
TTITLE1=Rag Tag
TTITLE2=Time to Get a Gun
TTITLE3=Dear Old Dixie
TTITLE4=Too Drunk to Drive to Work (This Morning)
TTITLE5=Things Don't Turn Out
TTITLE6=Salt Creek
TTITLE7=I'm Alright
TTITLE8=Somewhere Over the Rainbow
EXTD=
EXTT0=
EXTT1=
EXTT2=
EXTT3=
EXTT4=
EXTT5=
EXTT6=
EXTT7=
EXTT8=
PLAYORDER=
